<?xml version="1.0" encoding="utf-8"?>
<!-- Svg Vector Icons : http://www.sfont.cn -->
<!DOCTYPE svg PUBLIC "-//W3C//DTD SVG 1.1//EN" "http://www.w3.org/Graphics/SVG/1.1/DTD/svg11.dtd">
<svg version="1.1" xmlns="http://www.w3.org/2000/svg" xmlns:xlink="http://www.w3.org/1999/xlink" x="0px" y="0px" viewBox="0 0 1000 1000" enable-background="new 0 0 1000 1000" xml:space="preserve">
<metadata> Svg Vector Icons : http://www.sfont.cn </metadata>
<g><g transform="translate(0.000000,511.000000) scale(0.100000,-0.100000)"><path d="M4255.2,4973.8c-18.1-21.1-190-313.6-382.9-648.3l-349.8-612.1l370.9-639.3l370.9-642.3l738.8-9l741.8-6l367.9,636.2c199,349.8,364.9,645.3,364.9,660.4c0,15.1-165.8,310.6-364.9,660.4L5744.8,5010h-729.7C4466.3,5010,4276.3,5001,4255.2,4973.8z M5681.5,4099.3l226.2-386l-226.2-383l-223.1-386h-446.3h-446.3l-223.1,386l-220.1,386l187,322.6c102.5,177.9,205,352.8,229.2,392c39.2,66.3,51.3,66.3,479.4,60.3l440.2-9L5681.5,4099.3z"/><path d="M3902.4,770.4c-199-343.8-358.8-639.3-358.8-657.4s159.8-316.6,358.8-660.4l358.8-624.2l750.8,6l747.8,9l358.8,618.2c196,340.7,358.8,633.2,358.8,648.3c0,18.1-162.8,307.6-358.8,648.3l-358.8,618.2l-747.8,9l-750.8,6L3902.4,770.4z M5675.5,511c114.6-199,208-379.9,208-401c0-18.1-93.5-199-208-401l-208.1-364.9l-452.3-3h-452.3L4351.7-288c-114.6,202-211.1,383-211.1,398c0,18.1,96.5,196,211.1,401l211.1,367.9h452.3l452.3-3L5675.5,511z"/><path d="M4255.2-2233c-18.1-21.1-190-313.6-382.9-648.3l-349.8-609.1l370.9-642.3l370.9-642.3l738.8-9l741.8-6l364.9,636.2c202,349.8,367.9,648.3,367.9,663.4s-165.8,310.6-367.9,660.4l-364.9,633.2h-729.7C4466.3-2196.8,4276.3-2205.8,4255.2-2233z M5684.5-3107.4l223.1-386l-226.2-383l-223.1-386h-443.3h-446.3l-223.1,386l-223.1,386l202,352.8c111.6,193,217.1,370.9,232.2,392c21.1,27.1,138.7,36.2,467.4,30.2l437.2-9L5684.5-3107.4z"/></g></g>
</svg>