<?xml version="1.0" encoding="utf-8"?>
<!-- Svg Vector Icons : http://www.sfont.cn -->
<!DOCTYPE svg PUBLIC "-//W3C//DTD SVG 1.1//EN" "http://www.w3.org/Graphics/SVG/1.1/DTD/svg11.dtd">
<svg version="1.1" xmlns="http://www.w3.org/2000/svg" xmlns:xlink="http://www.w3.org/1999/xlink" x="0px" y="0px" viewBox="0 0 1000 1000" enable-background="new 0 0 1000 1000" xml:space="preserve">
<metadata> Svg Vector Icons : http://www.sfont.cn </metadata>
<g><path d="M301.6,957.7l396.8-452.9L301.6,957.7L301.6,957.7z M730.7,504.8c0,7.6-2.6,15.1-8,21.3L325.9,979c-11.8,13.4-32.2,14.8-45.6,3c-13.4-11.8-14.7-32.1-3-45.5l396.8-452.9c11.8-13.4,32.1-14.8,45.5-3C727,487,730.7,495.9,730.7,504.8L730.7,504.8z M301.6,42.3l396.9,452.9L301.6,42.3L301.6,42.3z M730.7,495.2c0,8.9-3.7,17.9-11,24.3c-13.4,11.8-33.8,10.4-45.5-3L277.3,63.5c-11.8-13.4-10.4-33.8,3-45.5c13.4-11.8,33.8-10.4,45.6,3l396.8,452.9C728.1,480,730.7,487.6,730.7,495.2L730.7,495.2z"/></g>
</svg>