<?xml version="1.0" encoding="utf-8"?>
<!-- Svg Vector Icons : http://www.sfont.cn -->
<!DOCTYPE svg PUBLIC "-//W3C//DTD SVG 1.1//EN" "http://www.w3.org/Graphics/SVG/1.1/DTD/svg11.dtd">
<svg version="1.1" xmlns="http://www.w3.org/2000/svg" xmlns:xlink="http://www.w3.org/1999/xlink" x="0px" y="0px" viewBox="0 0 1000 1000" enable-background="new 0 0 1000 1000" xml:space="preserve">
<metadata> Svg Vector Icons : http://www.sfont.cn </metadata>
<g><path d="M302.4,500L743.9,47.3c8.5-8.7,8.3-22.6-0.4-31.1c-8.7-8.5-22.6-8.3-31.1,0.4L256.1,484.5c-4.1,4.2-6.1,9.6-6.2,15c0,0.2,0,0.3,0,0.5c0,0.2,0,0.3,0,0.5c0.1,5.4,2.1,10.8,6.2,15l456.3,467.9c8.5,8.7,22.4,8.9,31.1,0.4c8.7-8.5,8.9-22.4,0.4-31.1L302.4,500z"/></g>
</svg>